<?plantuml 1.2026.2?><svg xmlns="http://www.w3.org/2000/svg" xmlns:xlink="http://www.w3.org/1999/xlink" contentStyleType="text/css" data-diagram-type="DESCRIPTION" height="249px" preserveAspectRatio="none" style="width:1250px;height:249px;background:#FFFFFF;" version="1.1" viewBox="0 0 1250 249" width="1250px" zoomAndPan="magnify"><title>BlackoutRadar &#8212; Domain Model</title><defs/><g><g class="title" data-source-line="2"><text fill="#000000" font-family="Arial" font-size="14" font-weight="bold" lengthAdjust="spacing" textLength="216.2549" x="509.8726" y="22.6738">BlackoutRadar &#8212; Domain Model</text></g><!--cluster Identity--><g class="cluster" data-qualified-name="Identity" data-source-line="13" id="ent0002"><rect fill="none" height="86" rx="6" ry="6" style="stroke:#181818;stroke-width:1;" width="82" x="449" y="157.6406"/><text fill="#000000" font-family="Arial" font-size="14" font-weight="bold" lengthAdjust="spacing" textLength="49.7793" x="465.1104" y="172.3145">Identity</text></g><!--cluster Address Catalog--><g class="cluster" data-qualified-name="Address Catalog" data-source-line="19" id="ent0004"><rect fill="none" height="157" rx="6" ry="6" style="stroke:#181818;stroke-width:1;" width="528" x="716" y="43.6406"/><text fill="#000000" font-family="Arial" font-size="14" font-weight="bold" lengthAdjust="spacing" textLength="111.248" x="924.376" y="58.3145">Address Catalog</text></g><!--cluster Monitoring--><g class="cluster" data-qualified-name="Monitoring" data-source-line="29" id="ent0010"><rect fill="none" height="86" rx="6" ry="6" style="stroke:#181818;stroke-width:1;" width="129" x="559" y="157.6406"/><text fill="#000000" font-family="Arial" font-size="14" font-weight="bold" lengthAdjust="spacing" textLength="72.3105" x="587.3447" y="172.3145">Monitoring</text></g><!--cluster Outages--><g class="cluster" data-qualified-name="Outages" data-source-line="35" id="ent0012"><rect fill="none" height="86" rx="6" ry="6" style="stroke:#181818;stroke-width:1;" width="265" x="7" y="71.6406"/><text fill="#000000" font-family="Arial" font-size="14" font-weight="bold" lengthAdjust="spacing" textLength="56.0137" x="111.4932" y="86.3145">Outages</text></g><!--cluster Notifications--><g class="cluster" data-qualified-name="Notifications" data-source-line="42" id="ent0015"><rect fill="none" height="86" rx="6" ry="6" style="stroke:#181818;stroke-width:1;" width="121" x="300" y="157.6406"/><text fill="#000000" font-family="Arial" font-size="14" font-weight="bold" lengthAdjust="spacing" textLength="84.7793" x="318.1104" y="172.3145">Notifications</text></g><!--entity User--><g class="entity" data-qualified-name="Identity.User" data-source-line="15" id="ent0003"><rect fill="#F1F1F1" height="35.6406" rx="6" ry="6" style="stroke:#181818;stroke-width:0.5;" width="49.5586" x="465" y="191.6406"/><text fill="#000000" font-family="Arial" font-size="14" lengthAdjust="spacing" textLength="29.5586" x="475" y="214.3145">User</text></g><!--entity Region--><g class="entity" data-qualified-name="Address Catalog.Region" data-source-line="21" id="ent0005"><rect fill="#F1F1F1" height="35.6406" rx="6" ry="6" style="stroke:#181818;stroke-width:0.5;" width="64.3652" x="772" y="77.6406"/><text fill="#000000" font-family="Arial" font-size="14" lengthAdjust="spacing" textLength="44.3652" x="782" y="100.3145">Region</text></g><!--entity City--><g class="entity" data-qualified-name="Address Catalog.City" data-source-line="22" id="ent0006"><rect fill="#F1F1F1" height="35.6406" rx="6" ry="6" style="stroke:#181818;stroke-width:0.5;" width="44.1104" x="936" y="77.6406"/><text fill="#000000" font-family="Arial" font-size="14" lengthAdjust="spacing" textLength="24.1104" x="946" y="100.3145">City</text></g><!--entity Street--><g class="entity" data-qualified-name="Address Catalog.Street" data-source-line="23" id="ent0007"><rect fill="#F1F1F1" height="35.6406" rx="6" ry="6" style="stroke:#181818;stroke-width:0.5;" width="57.3516" x="1040" y="77.6406"/><text fill="#000000" font-family="Arial" font-size="14" lengthAdjust="spacing" textLength="37.3516" x="1050" y="100.3145">Street</text></g><!--entity Address--><g class="entity" data-qualified-name="Address Catalog.Address" data-source-line="24" id="ent0008"><rect fill="#F1F1F1" height="35.6406" rx="6" ry="6" style="stroke:#181818;stroke-width:0.5;" width="71.3584" x="1157" y="77.6406"/><text fill="#000000" font-family="Arial" font-size="14" lengthAdjust="spacing" textLength="51.3584" x="1167" y="100.3145">Address</text></g><!--entity TS--><g class="entity" data-qualified-name="Address Catalog.TS" data-source-line="25" id="ent0009"><rect fill="#F1F1F1" height="35.6406" rx="6" ry="6" style="stroke:#181818;stroke-width:0.5;" width="143.71" x="732" y="148.6406"/><text fill="#000000" font-family="Arial" font-size="14" lengthAdjust="spacing" textLength="123.71" x="742" y="171.3145">Transformer Station</text></g><!--entity Subscription--><g class="entity" data-qualified-name="Monitoring.Subscription" data-source-line="31" id="ent0011"><rect fill="#F1F1F1" height="35.6406" rx="6" ry="6" style="stroke:#181818;stroke-width:0.5;" width="97.041" x="575" y="191.6406"/><text fill="#000000" font-family="Arial" font-size="14" lengthAdjust="spacing" textLength="77.041" x="585" y="214.3145">Subscription</text></g><!--entity Source--><g class="entity" data-qualified-name="Outages.Source" data-source-line="37" id="ent0013"><rect fill="#F1F1F1" height="35.6406" rx="6" ry="6" style="stroke:#181818;stroke-width:0.5;" width="64.3584" x="23" y="105.6406"/><text fill="#000000" font-family="Arial" font-size="14" lengthAdjust="spacing" textLength="44.3584" x="33" y="128.3145">Source</text></g><!--entity Outage--><g class="entity" data-qualified-name="Outages.Outage" data-source-line="38" id="ent0014"><rect fill="#F1F1F1" height="35.6406" rx="6" ry="6" style="stroke:#181818;stroke-width:0.5;" width="109.4961" x="147" y="105.6406"/><text fill="#000000" font-family="Arial" font-size="14" lengthAdjust="spacing" textLength="89.4961" x="157" y="128.3145">Power Outage</text></g><!--entity Notification--><g class="entity" data-qualified-name="Notifications.Notification" data-source-line="44" id="ent0016"><rect fill="#F1F1F1" height="35.6406" rx="6" ry="6" style="stroke:#181818;stroke-width:0.5;" width="89.2549" x="316" y="191.6406"/><text fill="#000000" font-family="Arial" font-size="14" lengthAdjust="spacing" textLength="69.2549" x="326" y="214.3145">Notification</text></g><!--link Region to City--><g class="link" data-entity-1="ent0005" data-entity-2="ent0006" data-link-type="dependency" data-source-line="48" id="lnk17"><path d="M836.28,95.6406 C866.09,95.6406 903.59,95.6406 929.71,95.6406" fill="none" id="Region-to-City" style="stroke:#181818;stroke-width:1.5;"/><polygon fill="#181818" points="935.71,95.6406,926.71,91.6406,930.71,95.6406,926.71,99.6406,935.71,95.6406" style="stroke:#181818;stroke-width:1.5;"/><text fill="#000000" font-family="Arial" font-size="13" lengthAdjust="spacing" textLength="48.4199" x="837" y="108.4092">contains</text></g><!--link City to Street--><g class="link" data-entity-1="ent0006" data-entity-2="ent0007" data-link-type="dependency" data-source-line="50" id="lnk18"><path d="M980.1,95.6406 C997.23,95.6406 1015.11,95.6406 1033.73,95.6406" fill="none" id="City-to-Street" style="stroke:#181818;stroke-width:1.5;"/><polygon fill="#181818" points="1039.73,95.6406,1030.73,91.6406,1034.73,95.6406,1030.73,99.6406,1039.73,95.6406" style="stroke:#181818;stroke-width:1.5;"/><text fill="#000000" font-family="Arial" font-size="13" lengthAdjust="spacing" textLength="48.4199" x="960.91" y="108.4092">contains</text></g><!--link Street to Address--><g class="link" data-entity-1="ent0007" data-entity-2="ent0008" data-link-type="dependency" data-source-line="52" id="lnk19"><path d="M1097.26,95.6406 C1115,95.6406 1131.9,95.6406 1150.8,95.6406" fill="none" id="Street-to-Address" style="stroke:#181818;stroke-width:1.5;"/><polygon fill="#181818" points="1156.8,95.6406,1147.8,91.6406,1151.8,95.6406,1147.8,99.6406,1156.8,95.6406" style="stroke:#181818;stroke-width:1.5;"/><text fill="#000000" font-family="Arial" font-size="13" lengthAdjust="spacing" textLength="48.4199" x="1078.03" y="108.4092">contains</text></g><!--link User to Subscription--><g class="link" data-entity-1="ent0003" data-entity-2="ent0011" data-link-type="dependency" data-source-line="54" id="lnk20"><path d="M515.11,209.6406 C531.95,209.6406 548.69,209.6406 568.98,209.6406" fill="none" id="User-to-Subscription" style="stroke:#181818;stroke-width:1.5;"/><polygon fill="#181818" points="574.98,209.6406,565.98,205.6406,569.98,209.6406,565.98,213.6406,574.98,209.6406" style="stroke:#181818;stroke-width:1.5;"/><text fill="#000000" font-family="Arial" font-size="13" lengthAdjust="spacing" textLength="30.3481" x="514.05" y="222.4092">owns</text></g><!--link Subscription to Address--><g class="link" data-entity-1="ent0011" data-entity-2="ent0008" data-link-type="dependency" data-source-line="56" id="lnk21"><path d="M672.08,209.6406 C811.84,209.6406 1205,209.6406 1205,209.6406 C1205,209.6406 1205,151.8506 1205,119.7006" fill="none" id="Subscription-to-Address" style="stroke:#181818;stroke-width:1.5;"/><polygon fill="#181818" points="1205,113.7006,1201,122.7006,1205,118.7006,1209,122.7006,1205,113.7006" style="stroke:#181818;stroke-width:1.5;"/><text fill="#000000" font-family="Arial" font-size="13" lengthAdjust="spacing" textLength="49.8481" x="936.51" y="222.4092">monitors</text></g><!--link Subscription to TS--><g class="link" data-entity-1="ent0011" data-entity-2="ent0009" data-link-type="dependency" data-source-line="58" id="lnk22"><path d="M624,191.1506 C624,179.5006 624,166.6406 624,166.6406 C624,166.6406 675.75,166.6406 725.82,166.6406" fill="none" id="Subscription-to-TS" style="stroke:#181818;stroke-width:1.5;"/><polygon fill="#181818" points="731.82,166.6406,722.82,162.6406,726.82,166.6406,722.82,170.6406,731.82,166.6406" style="stroke:#181818;stroke-width:1.5;"/><text fill="#000000" font-family="Arial" font-size="13" lengthAdjust="spacing" textLength="48.4009" x="669.5477" y="148.4092">filters by</text><text fill="#000000" font-family="Arial" font-size="13" lengthAdjust="spacing" textLength="54.1963" x="666.65" y="162.9326">(optional)</text></g><!--link Source to Outage--><g class="link" data-entity-1="ent0013" data-entity-2="ent0014" data-link-type="dependency" data-source-line="60" id="lnk23"><path d="M87.15,123.6406 C104.67,123.6406 120.83,123.6406 140.96,123.6406" fill="none" id="Source-to-Outage" style="stroke:#181818;stroke-width:1.5;"/><polygon fill="#181818" points="146.96,123.6406,137.96,119.6406,141.96,123.6406,137.96,127.6406,146.96,123.6406" style="stroke:#181818;stroke-width:1.5;"/><text fill="#000000" font-family="Arial" font-size="13" lengthAdjust="spacing" textLength="49.1372" x="67.06" y="136.4092">provides</text></g><!--link Outage to Address--><g class="link" data-entity-1="ent0014" data-entity-2="ent0008" data-link-type="dependency" data-source-line="62" id="lnk24"><path d="M256.26,120.6406 C462.54,120.6406 1181,120.6406 1181,120.6406 C1181,120.6406 1181,123.6906 1181,119.8106" fill="none" id="Outage-to-Address" style="stroke:#181818;stroke-width:1.5;"/><polygon fill="#181818" points="1181,113.8106,1177,122.8106,1181,118.8106,1185,122.8106,1181,113.8106" style="stroke:#181818;stroke-width:1.5;"/><text fill="#000000" font-family="Arial" font-size="13" lengthAdjust="spacing" textLength="38.2954" x="723.05" y="133.4092">affects</text></g><!--link Outage to TS--><g class="link" data-entity-1="ent0014" data-entity-2="ent0009" data-link-type="dependency" data-source-line="64" id="lnk25"><path d="M256.04,127.6406 C395.11,127.6406 752,127.6406 752,127.6406 C752,127.6406 752,132.3306 752,142.5106" fill="none" id="Outage-to-TS" style="stroke:#181818;stroke-width:1.5;"/><polygon fill="#181818" points="752,148.5106,756,139.5106,752,143.5106,748,139.5106,752,148.5106" style="stroke:#181818;stroke-width:1.5;"/><text fill="#000000" font-family="Arial" font-size="13" lengthAdjust="spacing" textLength="50.5781" x="461.2691" y="140.4092">specifies</text><text fill="#000000" font-family="Arial" font-size="13" lengthAdjust="spacing" textLength="54.1963" x="459.46" y="154.9326">(optional)</text></g><!--link Outage to Notification--><g class="link" data-entity-1="ent0014" data-entity-2="ent0016" data-link-type="dependency" data-source-line="66" id="lnk26"><path d="M256.39,134.6406 C302.53,134.6406 361,134.6406 361,134.6406 C361,134.6406 361,163.2906 361,185.4806" fill="none" id="Outage-to-Notification" style="stroke:#181818;stroke-width:1.5;"/><polygon fill="#181818" points="361,191.4806,365,182.4806,361,186.4806,357,182.4806,361,191.4806" style="stroke:#181818;stroke-width:1.5;"/><text fill="#000000" font-family="Arial" font-size="13" lengthAdjust="spacing" textLength="42.6309" x="294.12" y="147.4092">creates</text></g><!--link Notification to User--><g class="link" data-entity-1="ent0016" data-entity-2="ent0003" data-link-type="dependency" data-source-line="68" id="lnk27"><path d="M405.07,209.6406 C425.11,209.6406 442.03,209.6406 459,209.6406" fill="none" id="Notification-to-User" style="stroke:#181818;stroke-width:1.5;"/><polygon fill="#181818" points="465,209.6406,456,205.6406,460,209.6406,456,213.6406,465,209.6406" style="stroke:#181818;stroke-width:1.5;"/><text fill="#000000" font-family="Arial" font-size="13" lengthAdjust="spacing" textLength="67.209" x="367.03" y="222.4092">delivered to</text></g><?plantuml-src RLFDYjim4BxhAOQSjeSjx48lUoYaMGezxBR4wQsNMMliY2WQCnfl2ANGX-WJzaagoTaY1_jYy_tCVFvagrDFyCbZU-1HjsXHuE_lF_38HtG1djYIDyPJfw0CulgzWdL2hJeEniI32mCA7Y7kqVB9XHuwz94gnhj0UXu8M7JF5M6fmz7hPmxwZ4U2jJZq5RyMuTDkxzf3e1ZXxls7YXnIOkofqNFAd_DWw7szTlk6RNaCTiCIIE3ktfYB4rPVB0LrUbx1JsCWNV_7mFT8OiolIhosLdAA3IfwxXSyM-fp9tDma-PVGOqAaLw1b_5Nw6ed66B7SapP6yLS-WemmgwPftlYu9GbrRyGh1bVOYjkc8wijdqTDTtZaeT7QUawpZS-fI2Jg-IO7kT3drbTvzeITcbqpHVdL1pStduiTS43jEcJI9zVDAO0cPbQct4NABDlfrFJ-GmdQ_N-IS6dOgx1-OZZLEQIQDSaldDUIIAyd7-46oua-dT9NJehkgcNf1s4NvsbDEi2pLTXrwLUvcpP4GTgKqiKvoigMLrZVcyXrBndXcTXwU4X_MtUlPAGJJ-o-GS0?></g></svg>